<?xml version="1.0" standalone="no"?>
<!DOCTYPE svg PUBLIC "-//W3C//DTD SVG 20010904//EN"
 "http://www.w3.org/TR/2001/REC-SVG-20010904/DTD/svg10.dtd">
<svg version="1.0" xmlns="http://www.w3.org/2000/svg"
 width="1240.000000pt" height="875.000000pt" viewBox="0 0 1240.000000 875.000000"
 preserveAspectRatio="xMidYMid meet">

<g transform="translate(0.000000,875.000000) scale(0.100000,-0.100000)"
fill="#000000" stroke="none">
<path d="M584 8388 c-16 -18 -17 -21 -2 -15 14 5 18 -2 21 -41 3 -42 4 -40 5
16 1 34 0 62 -1 62 -2 0 -12 -10 -23 -22z"/>
<path d="M660 8395 c-9 -10 -9 -15 -1 -15 6 0 11 5 11 10 0 6 7 10 15 10 18 0
20 -40 3 -40 -7 0 -5 -5 5 -11 9 -5 17 -17 17 -25 0 -20 -27 -29 -45 -14 -9 7
-15 8 -15 2 0 -11 23 -22 45 -22 19 0 38 37 28 53 -4 6 -6 20 -4 31 5 33 -37
48 -59 21z"/>
<path d="M761 8366 c-6 -24 -14 -52 -17 -62 -5 -13 -4 -16 3 -9 14 13 43 115
33 115 -4 0 -13 -20 -19 -44z"/>
<path d="M814 8388 c-16 -18 -17 -21 -2 -15 14 5 18 -2 21 -41 3 -42 4 -40 5
16 1 34 0 62 -1 62 -2 0 -12 -10 -23 -22z"/>
<path d="M902 8398 c-17 -17 -15 -83 3 -98 22 -19 49 -8 58 25 17 59 -25 109
-61 73z m43 -48 c0 -34 -4 -45 -17 -48 -12 -2 -19 5 -24 22 -9 39 3 78 24 74
13 -3 17 -14 17 -48z"/>
<path d="M991 8364 c-6 -23 -14 -49 -18 -59 -4 -12 -3 -16 4 -12 6 4 17 31 24
59 7 29 14 47 17 40 3 -10 7 -10 18 -1 16 13 44 5 44 -14 0 -7 -13 -26 -30
-42 -16 -16 -30 -32 -30 -37 0 -4 19 -7 43 -6 37 1 38 2 9 5 l-33 4 31 35 c24
28 28 39 20 54 -8 14 -20 19 -49 17 -38 -1 -40 -3 -50 -43z"/>
<path d="M1132 8398 c-17 -17 -15 -83 3 -98 22 -19 49 -8 58 25 17 59 -25 109
-61 73z m43 -48 c0 -34 -4 -45 -17 -48 -21 -4 -33 35 -24 74 5 17 12 24 24 22
13 -3 17 -14 17 -48z"/>
<path d="M1223 8403 c-7 -2 -13 -9 -13 -15 0 -6 6 -6 15 2 17 14 45 7 45 -13
0 -7 -13 -26 -30 -42 -16 -16 -30 -32 -30 -37 0 -4 19 -7 43 -6 37 1 38 2 9 5
l-33 4 31 35 c25 29 28 39 20 54 -10 19 -31 24 -57 13z"/>
<path d="M1324 8388 c-16 -18 -17 -21 -2 -15 14 5 18 -2 21 -41 3 -42 4 -40 5
16 1 34 0 62 -1 62 -2 0 -12 -10 -23 -22z"/>
<path d="M1464 8388 c-16 -18 -17 -21 -2 -15 14 5 18 -2 21 -41 3 -42 4 -40 5
16 1 34 0 62 -1 62 -2 0 -12 -10 -23 -22z"/>
<path d="M1544 8388 c-16 -18 -17 -21 -2 -15 14 5 18 -2 21 -41 3 -42 4 -40 5
16 1 34 0 62 -1 62 -2 0 -12 -10 -23 -22z"/>
<path d="M1678 8367 l-27 -42 24 -3 c14 -2 25 -10 25 -18 0 -8 5 -14 10 -14 6
0 10 7 10 15 0 10 11 15 35 15 24 0 35 -5 35 -15 0 -8 5 -15 10 -15 6 0 10 6
10 14 0 8 6 17 13 19 10 4 10 6 0 6 -8 1 -13 16 -13 41 0 22 -3 40 -8 40 -4 0
-18 -18 -32 -40 -14 -22 -30 -40 -37 -40 -8 0 -13 14 -13 40 0 22 -3 40 -7 40
-5 0 -20 -19 -35 -43z m22 -17 c0 -11 -7 -20 -15 -20 -13 0 -14 4 -5 20 6 11
13 20 15 20 3 0 5 -9 5 -20z m90 0 c0 -11 -7 -20 -15 -20 -13 0 -14 4 -5 20 6
11 13 20 15 20 3 0 5 -9 5 -20z"/>
<path d="M8900 8060 c0 -5 -47 -11 -107 -13 l-108 -3 113 -2 c84 -1 112 1 112
11 0 8 4 7 10 -3 8 -12 10 -12 10 -1 0 9 4 10 13 3 7 -6 67 -10 142 -9 122 1
124 1 28 4 -57 2 -103 8 -103 13 0 6 -25 10 -55 10 -30 0 -55 -4 -55 -10z"/>
<path d="M8640 8045 c0 -17 2 -18 24 -9 18 7 12 24 -10 24 -8 0 -14 -7 -14
-15z"/>
<path d="M9242 8049 c2 -7 10 -15 17 -17 8 -3 12 1 9 9 -2 7 -10 15 -17 17 -8
3 -12 -1 -9 -9z"/>
<path d="M8640 7727 c0 -231 3 -297 13 -297 9 0 8 -3 -2 -9 -11 -7 -11 -9 0
-14 8 -3 9 -6 2 -6 -15 -1 -19 -651 -3 -651 17 0 16 1246 -1 1265 -5 5 -9
-111 -9 -288z"/>
<path d="M9247 7703 c-3 -211 -2 -322 5 -330 7 -9 7 -13 0 -13 -8 0 -11 -96
-12 -305 0 -168 3 -305 8 -305 5 0 12 141 15 313 9 466 9 957 -1 957 -5 0 -11
-143 -15 -317z"/>
<path d="M8820 7384 c0 -9 11 -14 33 -15 219 -5 237 -4 237 13 0 15 -15 17
-135 17 -111 0 -135 -3 -135 -15z"/>
<path d="M2425 6900 c4 -6 -176 -11 -522 -12 -290 -2 -28 -3 582 -3 611 0 873
1 583 3 -341 1 -528 6 -528 12 0 6 -27 10 -61 10 -37 0 -58 -4 -54 -10z"/>
<path d="M1330 6885 c0 -7 7 -12 15 -11 22 3 23 19 3 22 -10 1 -18 -4 -18 -11z"/>
<path d="M3605 6890 c-3 -5 -5 -10 -3 -11 33 -8 38 -7 27 7 -14 17 -16 17 -24
4z"/>
<path d="M8916 6804 l-68 -75 -104 3 c-101 3 -104 2 -104 -19 0 -15 5 -20 18
-18 9 1 16 8 15 14 -2 7 22 10 75 9 l77 -2 -70 -5 c-69 -6 -68 -6 53 -14 68
-5 187 -5 265 0 141 8 141 8 62 14 l-80 5 93 2 c64 1 91 -1 90 -9 -4 -16 234
-12 244 4 6 9 8 9 8 0 0 -8 39 -11 133 -10 l132 0 -95 8 c-52 4 -119 10 -147
13 -29 2 -55 0 -59 -5 -8 -13 -182 -11 -186 2 -3 8 -42 11 -121 10 l-117 -2 0
40 c0 37 -26 111 -40 111 -3 0 -36 -34 -74 -76z m104 -36 l0 -38 -72 0 -71 0
24 28 c13 15 39 44 59 65 l35 38 12 -28 c7 -15 12 -45 13 -65z"/>
<path d="M1335 6120 c0 -446 2 -607 5 -400 l5 345 5 -345 c4 -224 5 -84 5 400
0 457 -2 612 -5 400 l-5 -345 -5 345 c-3 220 -5 74 -5 -400z"/>
<path d="M3613 6498 c-2 -278 1 -368 10 -372 9 -3 9 -5 0 -5 -8 -1 -11 -49
-10 -173 l1 -173 6 150 6 150 2 -147 2 -148 415 0 c270 0 415 -3 415 -10 0 -5
23 -10 50 -10 28 0 50 5 50 10 0 14 412 13 461 -1 36 -11 39 -15 50 -68 15
-76 76 -191 101 -191 4 0 51 56 105 125 92 119 99 125 130 123 20 -1 33 -7 33
-16 0 -7 -4 -10 -10 -7 -12 8 -19 -24 -22 -104 l-3 -65 -95 -68 c-134 -96
-130 -91 -81 -123 26 -18 65 -31 110 -38 l69 -11 8 -118 c3 -65 6 -121 4 -124
-1 -4 4 -11 12 -16 10 -7 10 -11 1 -14 -9 -4 -12 -91 -10 -357 l1 -352 6 325
c4 219 6 270 8 158 1 -93 5 -168 10 -168 11 0 4 1573 -8 1580 -5 3 -11 73 -13
160 l-3 155 -2 -162 c-1 -121 1 -163 11 -166 10 -4 10 -6 0 -6 -7 -1 -13 -10
-13 -22 0 -11 5 -17 10 -14 6 4 9 -22 8 -72 l-2 -78 -6 70 c-4 45 -6 6 -6
-110 0 -111 3 -155 6 -115 l7 65 1 -72 c2 -53 -1 -73 -10 -73 -10 0 -811 -11
-928 -13 -8 0 -18 -5 -22 -11 -5 -8 -8 -7 -8 2 0 9 -90 12 -415 12 l-415 0 -2
248 c-1 136 -4 222 -7 192 -3 -30 -8 100 -11 290 l-6 345 -1 -367z m1689 -715
c-51 -2 -132 -2 -180 0 -48 1 -6 3 93 3 99 0 138 -2 87 -3z m32 -35 c-4 -7
-43 -60 -88 -117 l-80 -104 -23 29 c-26 33 -57 111 -66 167 l-6 37 135 0 c105
0 134 -3 128 -12z m76 -309 l0 -102 -56 7 c-58 7 -138 41 -132 56 2 7 177 139
186 140 1 0 2 -46 2 -101z m27 -311 c-2 -18 -4 -6 -4 27 0 33 2 48 4 33 2 -15
2 -42 0 -60z"/>
<path d="M1780 6645 l0 -165 470 0 469 0 3 -72 3 -73 113 -3 112 -3 0 234 0
234 -172 6 c-95 4 -359 7 -585 7 l-413 0 0 -165z m460 0 l0 -145 -225 0 -225
0 0 145 0 145 225 0 225 0 0 -145z m470 0 l0 -145 -225 0 -225 0 0 145 0 145
225 0 225 0 0 -145z m230 40 l0 -105 -45 0 c-38 0 -45 3 -45 20 0 16 7 20 30
20 29 0 30 2 30 44 0 25 -4 48 -10 51 -5 3 -10 15 -10 26 0 10 -6 19 -12 19
-7 0 -23 3 -35 6 -21 6 -23 3 -23 -30 0 -25 -4 -36 -15 -36 -10 0 -15 -10 -15
-30 0 -20 5 -30 15 -30 10 0 15 -10 15 -31 0 -29 -1 -30 -42 -27 l-43 3 -3
103 -3 102 106 0 105 0 0 -105z m-42 -17 c-4 -46 -28 -49 -28 -4 0 26 4 36 16
36 11 0 14 -8 12 -32z m42 -218 l0 -100 -105 0 -105 0 0 100 0 100 105 0 105
0 0 -100z"/>
<path d="M1880 6705 c0 -21 -5 -25 -30 -25 -29 0 -30 -2 -30 -45 0 -44 1 -45
33 -46 23 -1 26 -3 10 -6 -31 -6 -29 -31 3 -43 38 -15 43 -13 50 25 3 19 10
35 15 35 5 0 9 16 9 35 0 19 -4 35 -9 35 -5 0 -12 14 -16 30 -8 37 -35 40 -35
5z m-20 -70 c0 -19 -4 -35 -10 -35 -5 0 -10 16 -10 35 0 19 5 35 10 35 6 0 10
-16 10 -35z"/>
<path d="M2440 6666 c0 -9 -12 -16 -32 -18 -41 -4 -50 -28 -11 -28 27 0 29 -3
25 -30 -4 -30 -4 -30 47 -30 28 0 51 5 51 10 0 6 9 10 20 10 11 0 20 6 20 13
0 6 3 22 6 35 6 20 3 22 -30 22 -25 0 -36 4 -36 15 0 10 -10 15 -30 15 -19 0
-30 -5 -30 -14z m60 -81 c0 -10 -10 -15 -30 -15 -20 0 -30 5 -30 15 0 10 10
15 30 15 20 0 30 -5 30 -15z"/>
<path d="M3026 6745 c4 -8 1 -15 -5 -15 -6 0 -11 -11 -11 -24 0 -13 -6 -27
-12 -30 -10 -5 -10 -7 0 -12 6 -3 12 -17 12 -30 0 -13 5 -24 10 -24 6 0 10 -8
8 -17 -2 -15 5 -18 42 -18 30 0 44 4 43 12 -2 7 3 10 11 7 21 -8 42 37 40 84
-2 47 -20 76 -41 68 -8 -3 -11 -1 -8 4 4 6 -14 10 -44 10 -41 0 -49 -3 -45
-15z"/>
<path d="M1564 6714 c5 -14 4 -15 -9 -4 -12 10 -18 8 -33 -10 -33 -40 -13
-150 24 -136 8 3 13 0 11 -7 -1 -7 13 -13 38 -15 35 -2 42 1 53 25 6 15 12 33
12 40 0 7 5 13 10 13 6 0 10 7 10 15 0 8 -4 15 -10 15 -5 0 -10 11 -10 25 0
17 -6 25 -17 26 -11 0 -13 3 -5 6 27 11 9 23 -34 23 -39 0 -45 -3 -40 -16z"/>
<path d="M9766 6715 c-3 -9 1 -18 9 -21 13 -5 15 -33 13 -168 l-2 -161 -6 155
-6 155 -2 -157 c-1 -97 -6 -158 -12 -158 -6 0 -10 -45 -10 -114 0 -66 4 -117
10 -121 6 -3 10 -26 10 -50 0 -24 -4 -47 -10 -50 -13 -8 -13 -218 0 -231 8 -8
10 -180 8 -540 -1 -291 -3 -586 -3 -656 l0 -128 -415 0 c-272 0 -410 -4 -400
-10 10 -7 -8 -10 -59 -10 -96 0 -88 -8 12 -12 60 -2 80 1 87 12 6 8 10 10 10
4 0 -8 34 -12 113 -11 107 0 108 1 37 7 l-75 6 83 2 c49 1 82 -2 82 -8 0 -6
50 -10 130 -10 97 0 130 3 130 13 0 9 2 9 9 -1 4 -8 11 -13 15 -13 3 1 60 1
126 1 l120 0 0 -64 0 -63 -45 -6 c-46 -7 -105 -32 -105 -45 0 -4 34 -36 75
-71 l74 -64 0 -145 c0 -80 3 -147 6 -150 3 -3 6 55 7 129 1 92 3 117 7 79 12
-104 23 134 15 310 l-7 160 36 0 c39 0 117 27 117 40 0 5 -34 38 -75 75 -60
54 -75 73 -75 96 l0 29 75 0 75 0 0 310 0 310 462 0 461 0 -6 -457 c-4 -252
-7 -604 -7 -782 l0 -323 -247 3 c-137 2 -371 3 -520 2 -242 -3 -273 -5 -273
-19 0 -13 12 -15 73 -14 39 1 77 1 82 1 6 -1 100 -1 210 -1 l200 1 3 -42 c3
-43 28 -109 42 -109 4 0 35 33 70 74 l62 73 67 7 c36 3 170 6 298 6 175 0 233
3 237 13 3 8 8 7 16 -5 15 -24 30 -23 30 2 0 11 -4 20 -10 20 -7 0 -9 153 -8
443 l3 442 5 -435 5 -435 3 458 c2 364 -1 457 -10 451 -10 -6 -10 -4 0 8 14
17 13 39 -3 50 -6 5 -5 8 3 8 9 0 12 94 12 434 0 368 -2 435 -15 446 -11 9
-175 11 -704 8 -652 -3 -689 -2 -688 15 1 16 23 17 317 15 l315 -3 -310 -5
c-233 -4 -138 -6 378 -8 379 -1 693 -4 698 -8 5 -3 9 4 9 15 l0 21 -705 0
-705 0 0 40 c0 39 1 40 35 40 40 0 105 24 105 39 0 5 -31 38 -70 72 l-69 63 0
78 1 78 31 0 c18 0 52 10 77 21 l45 20 -30 26 c-89 77 -125 112 -125 125 0 10
21 13 87 13 l88 0 3 82 3 82 82 3 82 3 3 87 3 88 177 2 c97 2 290 2 427 0
l250 -3 0 -287 c0 -158 1 -293 3 -299 3 -9 29 -13 87 -13 64 0 84 -3 89 -15 8
-22 26 -18 26 5 0 11 -4 20 -10 20 -6 0 -9 46 -8 123 l2 122 6 -115 6 -115 2
138 c2 108 -1 137 -10 131 -8 -5 -8 -1 1 10 13 15 13 19 0 27 -10 6 -10 9 -1
9 9 0 12 29 10 118 l-2 117 -6 -115 -6 -115 -2 122 c-1 89 1 123 11 126 9 4 9
7 -1 18 -8 9 -15 10 -20 4 -8 -11 -601 -3 -688 10 -34 4 -54 3 -58 -4 -9 -15
-632 -15 -641 -1 -9 15 -22 12 -29 -5z m364 -95 l0 -70 -73 0 c-41 0 -77 -3
-81 -7 -4 -5 -40 -8 -79 -8 -67 0 -71 -1 -78 -25 -4 -14 -7 19 -8 78 l-1 102
160 0 160 0 0 -70z m1040 -45 l0 -106 -67 3 -68 3 -3 103 -3 102 71 0 70 0 0
-105z m-1353 -182 c-2 -16 -4 -5 -4 22 0 28 2 40 4 28 2 -13 2 -35 0 -50z
m1363 -38 l0 -105 -70 0 -70 0 0 105 0 105 70 0 70 0 0 -105z m-1260 -166 c0
-10 -65 -29 -97 -29 -22 0 -23 4 -23 71 l0 70 60 -52 c33 -29 60 -56 60 -60z
m1250 -19 l0 -50 -70 0 -70 0 0 50 0 50 70 0 70 0 0 -50z m-1383 -117 c-2 -16
-4 -5 -4 22 0 28 2 40 4 28 2 -13 2 -35 0 -50z m82 -143 c63 -58 60 -70 -18
-78 l-51 -5 0 67 c0 36 3 66 8 66 4 -1 32 -23 61 -50z m-82 -197 c-2 -16 -4
-3 -4 27 0 30 2 43 4 28 2 -16 2 -40 0 -55z m1241 10 c-86 -2 -230 -2 -320 0
-90 1 -19 3 157 3 176 0 249 -2 163 -3z m-1098 -268 l0 -225 -70 0 -70 0 0
225 0 225 70 0 70 0 0 -225z m470 80 l0 -145 -225 0 -225 0 0 145 0 145 225 0
225 0 0 -145z m470 0 l0 -145 -225 0 -225 0 0 145 0 145 225 0 225 0 0 -145z
m310 -75 l0 -220 -145 0 -145 0 0 220 0 220 145 0 145 0 0 -220z m0 -465 l0
-225 -145 0 -145 0 0 225 0 225 145 0 145 0 0 -225z m-1250 -10 l0 -225 -70 0
-70 0 0 225 0 225 70 0 70 0 0 -225z m1240 -470 l0 -225 -145 0 -145 0 0 225
0 225 145 0 145 0 0 -225z m-1287 79 c55 -49 50 -61 -32 -71 l-51 -6 0 72 c0
82 -4 82 83 5z m-96 -231 c-2 -16 -4 -3 -4 27 0 30 2 43 4 28 2 -16 2 -40 0
-55z m-17 -133 c0 -38 -3 -70 -6 -70 -15 0 -123 105 -115 113 10 10 64 24 99
26 21 1 22 -3 22 -69z m1400 -175 l0 -225 -145 0 -145 0 0 225 0 225 145 0
145 0 0 -225z m-686 -341 c-57 -64 -58 -65 -70 -42 -8 13 -13 42 -14 66 l0 42
71 0 71 0 -58 -66z"/>
<path d="M10123 5596 c-4 -8 -19 -16 -32 -18 -36 -5 -39 -28 -4 -28 27 0 29
-3 25 -30 -4 -30 -4 -30 43 -30 47 0 47 0 43 30 -3 17 -1 30 4 30 4 0 8 -9 8
-19 0 -11 4 -22 9 -25 12 -8 34 20 27 33 -3 5 0 12 6 14 18 8 -10 27 -39 27
-14 0 -23 6 -23 15 0 20 -56 20 -67 1z m67 -81 c0 -10 -11 -15 -35 -15 -24 0
-35 5 -35 15 0 10 11 15 35 15 24 0 35 -5 35 -15z"/>
<path d="M10620 5601 c0 -5 -16 -12 -35 -15 -41 -8 -49 -36 -10 -36 21 0 25
-5 25 -30 0 -29 2 -30 44 -30 25 0 48 5 51 10 3 6 14 10 24 10 13 0 21 10 25
32 7 35 -4 48 -41 48 -13 0 -23 5 -23 10 0 6 -13 10 -30 10 -16 0 -30 -4 -30
-9z m60 -81 c0 -5 -16 -10 -35 -10 -19 0 -35 5 -35 10 0 6 16 10 35 10 19 0
35 -4 35 -10z"/>
<path d="M11000 4983 c0 -27 -3 -29 -30 -25 -30 4 -30 4 -30 -47 0 -28 5 -51
10 -51 6 0 10 -9 10 -20 0 -11 6 -20 13 -20 6 0 22 -3 35 -6 20 -6 22 -3 22
30 0 25 4 36 15 36 10 0 15 10 15 30 0 19 -5 30 -14 30 -9 0 -16 12 -18 32 -4
41 -28 50 -28 11z m-20 -73 c0 -20 -5 -30 -15 -30 -10 0 -15 10 -15 30 0 20 5
30 15 30 10 0 15 -10 15 -30z"/>
<path d="M11020 4495 c0 -21 -5 -25 -30 -25 -29 0 -30 -2 -30 -45 0 -44 1 -45
33 -46 24 -1 26 -3 9 -6 -32 -6 -25 -34 12 -46 32 -11 46 1 46 41 0 12 5 22
10 22 6 0 10 16 10 35 0 19 -4 35 -9 35 -5 0 -11 14 -14 30 -8 37 -37 41 -37
5z m-10 -70 c0 -24 -5 -35 -15 -35 -10 0 -15 11 -15 35 0 24 5 35 15 35 10 0
15 -11 15 -35z"/>
<path d="M10800 6670 c-6 -11 -10 -48 -8 -83 l3 -62 70 0 70 0 0 60 c0 93 -8
105 -71 105 -43 0 -55 -4 -64 -20z"/>
<path d="M8643 6457 c-1 -125 -5 -232 -8 -237 -4 -6 56 -11 157 -13 90 -1
-185 -4 -609 -5 -510 -1 -773 1 -773 8 0 6 -30 10 -71 10 -44 0 -68 -4 -64
-10 4 -7 -303 -11 -902 -13 l-908 -2 937 -3 c741 -1 937 1 941 11 4 9 6 9 6 0
1 -10 167 -13 754 -14 413 -1 843 -3 955 -4 194 -3 202 -3 202 16 0 16 -7 19
-45 19 -25 0 -45 2 -45 4 0 25 -23 112 -34 127 -13 19 -17 17 -82 -56 l-69
-75 -165 2 -165 3 -3 93 c-2 59 1 92 8 92 5 0 10 22 10 51 0 29 -4 48 -10 44
-5 -3 -10 31 -12 87 -2 51 -4 -9 -5 -135z m507 -194 l0 -43 -65 0 c-36 0 -65
3 -65 6 0 3 24 32 53 64 50 57 52 58 64 37 7 -12 12 -41 13 -64z m83 -60 c-7
-2 -21 -2 -30 0 -10 3 -4 5 12 5 17 0 24 -2 18 -5z"/>
<path d="M10310 6515 l0 -165 89 0 c81 0 89 2 94 21 5 18 12 20 64 17 46 -2
58 0 58 12 0 15 -10 17 -92 19 l-33 1 0 130 0 130 -90 0 -90 0 0 -165z m139
111 c8 -9 11 -48 9 -112 l-3 -99 -52 0 -53 -1 0 101 c0 65 4 105 12 113 16 16
73 15 87 -2z"/>
<path d="M10536 6664 c-3 -9 -6 -45 -6 -80 l0 -65 72 3 71 3 2 60 c2 83 -7 95
-76 95 -43 0 -58 -4 -63 -16z"/>
<path d="M9242 6454 c1 -174 3 -199 8 -119 6 94 2 325 -6 334 -2 2 -3 -95 -2
-215z"/>
<path d="M5007 6593 c-11 -10 -8 -35 3 -28 6 4 7 12 3 18 -5 9 -2 8 8 0 13
-10 16 -10 16 2 0 15 -18 20 -30 8z"/>
<path d="M5105 6591 l60 -5 -60 -6 c-36 -4 9 -7 115 -7 111 0 153 3 115 7
l-60 7 73 1 c39 1 71 -1 70 -5 -2 -5 1 -10 6 -13 5 -3 10 3 12 12 2 16 -13 17
-194 15 -109 -1 -170 -4 -137 -6z"/>
<path d="M5001 6368 c0 -104 2 -188 7 -188 7 0 5 327 -2 360 -2 8 -4 -69 -5
-172z"/>
<path d="M8823 6468 c-12 -21 18 -27 132 -26 111 0 125 2 125 17 0 15 -14 17
-126 17 -69 -1 -128 -4 -131 -8z"/>
<path d="M2450 6440 c0 -5 -8 -10 -18 -10 -10 0 -22 -3 -26 -7 -4 -5 -13 -8
-19 -8 -7 0 -13 -19 -15 -42 -2 -26 1 -43 7 -43 6 0 11 -7 11 -15 0 -22 40
-39 85 -36 47 3 68 18 62 42 -3 12 0 16 9 12 11 -4 14 6 14 42 0 38 -3 46 -15
41 -8 -3 -15 -1 -15 4 0 6 -11 10 -25 10 -14 0 -25 5 -25 10 0 6 -7 10 -15 10
-8 0 -15 -4 -15 -10z"/>
<path d="M10797 6274 c-10 -10 -9 -126 2 -142 4 -7 33 -16 63 -19 l56 -6 9 49
c6 27 9 65 9 84 l-1 35 -65 3 c-36 2 -69 0 -73 -4z"/>
<path d="M3660 6260 c0 -6 89 -10 260 -10 155 0 260 4 260 9 0 6 -105 10 -260
11 -172 0 -260 -3 -260 -10z"/>
<path d="M4200 6261 c0 -6 110 -10 275 -11 182 0 275 3 275 10 0 7 -93 10
-275 10 -165 0 -275 -4 -275 -9z"/>
<path d="M4770 6262 c0 -5 7 -16 16 -23 14 -12 16 -11 13 5 -4 20 -29 35 -29
18z"/>
<path d="M4792 6148 c-1 -44 -6 -78 -12 -78 -5 0 -10 -22 -10 -50 0 -27 4 -50
10 -50 5 0 11 -37 13 -82 3 -75 3 -72 5 30 1 77 -1 112 -9 112 -8 0 -8 4 0 14
8 9 11 44 8 98 l-3 83 -2 -77z"/>
<path d="M1503 6173 c-27 -26 -35 -120 -9 -110 8 3 17 -1 20 -9 3 -8 14 -14
25 -14 11 0 22 -6 25 -12 5 -10 7 -10 12 0 3 6 17 12 30 12 13 0 24 5 24 10 0
6 9 10 21 10 18 0 20 5 17 43 -2 26 -8 41 -15 40 -7 -2 -10 3 -7 11 15 40
-106 56 -143 19z"/>
<path d="M2824 6183 c-9 -7 -14 -19 -11 -27 4 -9 1 -15 -6 -13 -7 1 -13 -13
-15 -38 -2 -35 1 -42 25 -52 15 -7 33 -13 40 -13 7 0 13 -4 13 -10 0 -5 7 -10
15 -10 8 0 15 5 15 10 0 6 6 10 13 10 7 0 25 6 40 13 24 10 27 17 25 52 -2 25
-8 39 -15 38 -8 -2 -10 4 -6 13 4 10 -1 21 -13 27 -26 15 -100 15 -120 0z"/>
<path d="M5080 6185 c0 -16 15 -17 210 -17 56 0 75 4 75 14 0 10 -32 14 -142
15 -121 2 -143 0 -143 -12z"/>
<path d="M2395 6174 c-8 -6 -15 -16 -15 -23 0 -6 -7 -11 -16 -11 -12 0 -15 -6
-10 -22 3 -13 6 -33 6 -44 0 -17 8 -23 35 -28 19 -4 41 -14 50 -22 13 -14 17
-14 31 0 8 9 22 16 30 16 8 0 14 4 14 10 0 5 7 7 15 4 11 -5 15 1 15 24 0 30
2 31 35 27 30 -4 35 -2 35 16 0 16 -6 20 -27 19 -45 -3 -64 -1 -59 8 18 29
-103 52 -139 26z"/>
<path d="M5005 6160 c-3 -5 -1 -10 4 -10 6 0 11 5 11 10 0 6 -2 10 -4 10 -3 0
-8 -4 -11 -10z"/>
<path d="M9240 6091 c0 -52 4 -80 10 -76 6 3 10 1 10 -4 0 -6 -4 -11 -10 -11
-13 0 -13 -907 0 -915 13 -8 13 -75 0 -75 -14 0 -13 -107 1 -116 6 -3 9 -24 7
-45 -2 -22 0 -39 4 -39 5 0 8 32 8 70 0 45 -4 70 -11 70 -8 0 -8 4 -2 13 16
20 17 118 1 128 -11 8 -11 10 1 18 11 7 11 10 0 15 -11 5 -11 7 -1 12 17 8 16
331 -1 338 -9 3 -8 5 1 5 15 1 18 261 2 261 -5 0 -10 5 -10 11 0 5 5 7 12 3
15 -10 4 394 -11 409 -8 8 -11 -13 -11 -72z"/>
<path d="M5002 5978 c2 -175 6 -159 10 40 2 67 0 122 -4 122 -5 0 -7 -73 -6
-162z"/>
<path d="M10430 6100 c0 -6 -114 -11 -307 -12 -170 -2 -4 -3 367 -3 371 0 537
1 368 3 -194 1 -308 6 -308 12 0 6 -27 10 -60 10 -33 0 -60 -4 -60 -10z"/>
<path d="M10633 6054 c-2 -5 -2 -66 -1 -135 l3 -124 233 -3 232 -2 0 137 0
138 -231 0 c-153 0 -233 -4 -236 -11z"/>
<path d="M10100 5925 l0 -135 235 0 235 0 0 50 c0 47 2 50 26 50 19 0 25 4 22
18 -3 11 -12 16 -26 15 -21 -3 -22 1 -22 67 l0 70 -235 0 -235 0 0 -135z"/>
<path d="M11202 6015 c-1 -22 -5 -51 -8 -65 -5 -19 -4 -22 5 -14 8 7 11 32 8
65 -3 44 -4 47 -5 14z"/>
<path d="M4082 6020 c5 -22 253 -23 253 0 0 13 -21 15 -128 15 -109 0 -127 -2
-125 -15z"/>
<path d="M6155 5988 c-32 -52 -43 -90 -44 -140 -1 -45 -3 -48 -28 -49 -16 -1
-161 -5 -323 -9 l-295 -6 263 -2 c167 -1 262 -6 262 -12 0 -6 92 -10 255 -10
163 0 255 4 255 10 0 6 112 10 315 10 203 0 315 -4 315 -10 0 -5 9 -10 20 -10
11 0 20 7 20 15 0 13 -39 15 -293 15 -162 0 -347 3 -413 7 l-119 6 -78 109
c-43 59 -82 108 -86 108 -3 0 -16 -15 -26 -32z m90 -83 c32 -44 62 -86 68 -92
7 -10 -13 -13 -93 -13 l-103 0 6 58 c5 61 43 151 56 136 5 -5 34 -45 66 -89z"/>
<path d="M7190 5994 c0 -11 16 -14 68 -14 37 -1 105 -2 152 -3 69 -1 85 1 85
13 0 13 -25 15 -152 17 -126 1 -153 -1 -153 -13z"/>
<path d="M1372 5808 l3 -163 938 -3 937 -2 0 165 0 165 -940 0 -940 0 2 -162z
m1546 135 c2 -9 -8 -13 -32 -13 -34 0 -44 8 -29 24 11 11 56 2 61 -11z m-1379
-20 c-2 -25 -2 -25 -6 -5 -6 32 -34 25 -46 -12 -11 -32 1 -46 41 -46 12 0 22
-4 22 -10 0 -5 16 -10 35 -10 19 0 35 4 35 9 0 5 14 11 30 15 37 7 41 36 5 36
-20 0 -25 5 -25 25 l0 25 105 0 105 0 0 -145 0 -145 -225 0 -225 0 0 145 0
145 75 0 75 0 -1 -27z m761 -59 c0 -74 -2 -85 -16 -80 -9 3 -24 6 -35 6 -10 0
-19 7 -19 15 0 10 -11 15 -35 15 -23 0 -35 -5 -35 -14 0 -8 -6 -14 -12 -13
-34 1 -48 -4 -48 -18 0 -9 9 -15 23 -15 20 0 23 -4 19 -30 -4 -30 -4 -30 47
-30 28 0 51 4 51 10 0 5 7 7 16 3 10 -4 17 1 21 16 9 37 23 23 23 -24 l0 -45
-225 0 -225 0 0 145 0 145 225 0 225 0 0 -86z m470 -59 l0 -145 -225 0 -225 0
0 145 0 145 225 0 225 0 0 -145z m67 113 c-3 -7 -5 -2 -5 12 0 14 2 19 5 13 2
-7 2 -19 0 -25z m403 -113 l0 -145 -225 0 -225 0 0 50 c0 46 2 50 23 50 20 0
23 -4 19 -30 -3 -22 0 -30 11 -30 8 0 29 -3 46 -6 30 -6 31 -5 32 27 1 24 3
27 6 12 6 -31 31 -29 43 3 15 38 13 42 -22 49 -18 4 -35 11 -38 15 -3 5 -18
12 -33 15 -21 6 -27 4 -27 -9 0 -11 -9 -16 -30 -16 -29 0 -30 2 -30 45 0 43 1
45 30 45 20 0 30 -5 30 -15 0 -10 11 -15 35 -15 24 0 35 5 35 15 0 10 10 15
30 15 20 0 30 5 30 15 0 9 -9 15 -25 15 -18 0 -25 5 -25 20 0 19 7 20 155 20
l155 0 0 -145z m-1620 120 c0 -10 -11 -15 -35 -15 -24 0 -35 5 -35 15 0 10 11
15 35 15 24 0 35 -5 35 -15z m604 -200 c-4 -9 -19 -15 -35 -15 -19 0 -29 5
-29 15 0 10 11 15 35 15 26 0 33 -3 29 -15z m686 0 c0 -10 -11 -15 -35 -15
-24 0 -35 5 -35 15 0 10 11 15 35 15 24 0 35 -5 35 -15z"/>
<path d="M1550 5795 c0 -10 -11 -15 -35 -15 -24 0 -35 -5 -35 -15 0 -9 9 -15
25 -15 21 0 25 -5 25 -30 0 -29 2 -30 45 -30 42 0 45 2 46 28 2 24 2 24 6 4 6
-32 34 -25 46 12 11 32 -1 46 -40 46 -14 0 -23 6 -23 15 0 10 -10 15 -30 15
-20 0 -30 -5 -30 -15z m60 -80 c0 -10 -11 -15 -35 -15 -24 0 -35 5 -35 15 0
10 11 15 35 15 24 0 35 -5 35 -15z"/>
<path d="M11197 5843 c3 -43 7 -80 9 -82 2 -2 4 32 4 77 0 45 -4 82 -9 82 -6
0 -7 -33 -4 -77z"/>
<path d="M8803 5793 l-43 -4 0 -260 0 -259 -34 0 c-18 0 -53 -7 -77 -15 -51
-18 -139 -75 -139 -90 1 -5 57 -53 125 -105 l125 -95 -2 -263 -3 -262 24 0
c17 0 22 4 17 16 -3 9 -6 18 -6 20 0 3 -4 2 -10 -1 -7 -4 -9 74 -8 227 l2 233
6 -225 5 -225 7 319 c4 175 4 459 0 630 l-7 311 -5 -220 -6 -220 -2 228 c-1
151 1 226 8 222 6 -3 13 1 16 9 7 17 44 22 44 6 0 -5 8 -10 18 -10 11 0 47
-32 83 -74 35 -41 67 -75 71 -75 13 -2 38 57 45 104 3 28 11 45 19 45 8 0 14
5 14 10 0 6 30 11 68 12 l67 1 -85 8 c-88 7 -263 8 -337 2z m242 -80 c-13 -90
-20 -92 -80 -26 -30 32 -54 61 -55 66 0 4 32 7 71 7 l71 0 -7 -47z m-258 -680
c-1 -49 -3 -9 -3 87 0 96 2 136 3 88 2 -49 2 -127 0 -175z m-27 92 l0 -135
-114 88 c-63 48 -115 90 -115 93 -1 11 74 57 120 73 24 8 59 15 77 16 l32 0 0
-135z"/>
<path d="M7548 5783 c230 -2 362 -7 362 -13 0 -6 25 -10 55 -10 30 0 55 4 55
10 0 6 132 11 363 13 l362 2 -392 3 c-305 1 -393 -1 -397 -10 -5 -10 -7 -10
-12 0 -4 9 -89 11 -382 10 l-377 -3 363 -2z"/>
<path d="M3612 5578 l2 -193 6 190 5 190 5 -190 5 -190 3 193 c2 165 0 192
-13 192 -13 0 -15 -27 -13 -192z"/>
<path d="M4178 5763 c18 -2 45 -2 60 0 15 2 0 4 -33 4 -33 0 -45 -2 -27 -4z"/>
<path d="M7307 5763 c18 -2 50 -2 70 0 21 2 7 4 -32 4 -38 0 -55 -2 -38 -4z"/>
<path d="M5745 5727 c-4 -13 -5 -48 -3 -78 l3 -54 70 0 70 0 3 54 c6 96 2 101
-73 101 -59 0 -65 -2 -70 -23z"/>
<path d="M4320 5650 l0 -90 160 0 160 0 0 90 0 90 -160 0 -160 0 0 -90z m168
73 l-147 -4 -4 -72 -3 -72 -2 78 -2 77 153 -2 152 -2 -147 -3z m108 -27 c8 -8
14 -29 14 -46 0 -52 -17 -60 -130 -60 -113 0 -130 8 -130 60 0 53 14 59 128
60 77 0 107 -4 118 -14z"/>
<path d="M5470 5620 l0 -120 115 0 115 0 0 120 0 120 -115 0 -115 0 0 -120z
m210 0 l0 -100 -100 0 -100 0 0 100 0 100 100 0 100 0 0 -100z"/>
<path d="M7136 5350 c-4 -218 -5 -453 -1 -523 4 -71 4 -127 -1 -127 -14 0
-451 233 -474 253 -24 20 -50 22 -50 4 0 -8 -34 -44 -75 -81 -41 -37 -75 -71
-75 -76 0 -15 68 -40 109 -40 31 0 41 -4 41 -16 0 -9 7 -14 18 -12 14 3 17 17
20 101 1 53 4 97 6 97 4 0 429 -227 461 -247 17 -10 21 -27 26 -105 5 -77 6
-64 7 80 1 107 6 172 12 172 6 0 10 33 10 78 l0 77 110 79 c61 44 109 85 107
90 -2 6 -27 23 -56 38 -39 21 -68 28 -107 28 l-54 0 0 60 c0 33 -4 60 -10 60
-6 0 -11 79 -12 203 -3 172 -4 143 -12 -193z m153 -150 c18 -5 45 -17 58 -25
l25 -17 -94 -68 c-51 -38 -96 -69 -100 -70 -5 0 -8 43 -8 95 l0 95 43 0 c23 0
57 -4 76 -10z m-679 -360 l0 -70 -34 0 c-38 0 -98 19 -94 29 4 10 117 111 123
111 3 0 5 -31 5 -70z"/>
<path d="M7290 5540 l0 -160 475 2 475 3 0 -82 0 -83 115 0 115 0 0 121 0 120
-120 -3 -120 -3 0 123 0 122 -470 0 -470 0 0 -160z m460 0 l0 -150 -225 0
-225 0 0 150 0 150 225 0 225 0 0 -150z m470 0 l0 -150 -225 0 -225 0 0 150 0
150 225 0 225 0 0 -150z m240 -200 l0 -100 -105 0 -105 0 0 100 0 100 105 0
105 0 0 -100z"/>
<path d="M7973 5586 c-4 -8 -19 -16 -32 -18 -36 -5 -39 -28 -4 -28 27 0 29 -3
25 -30 -4 -30 -4 -30 41 -30 25 0 49 5 52 10 3 6 15 10 27 10 15 0 19 5 15 20
-3 10 0 21 6 23 21 7 -4 27 -34 27 -19 0 -29 5 -29 15 0 20 -56 20 -67 1z m67
-81 c0 -10 -11 -15 -35 -15 -24 0 -35 5 -35 15 0 10 11 15 35 15 24 0 35 -5
35 -15z"/>
<path d="M8240 5585 l0 -115 115 0 115 0 0 115 0 115 -115 0 -115 0 0 -115z
m103 73 c-3 -18 -12 -37 -20 -41 -17 -11 -17 -54 1 -64 8 -4 16 -19 18 -32 5
-39 28 -38 29 1 0 18 3 27 6 21 2 -7 16 -13 29 -13 22 0 24 4 24 51 0 51 0 51
-30 47 -16 -3 -30 -1 -30 3 0 4 10 9 23 11 28 4 25 21 -5 30 -29 8 -24 10 30
12 l42 2 0 -103 0 -103 -105 0 -105 0 0 99 0 100 33 4 c70 8 67 10 60 -25z
m77 -73 c0 -24 -5 -35 -15 -35 -10 0 -15 11 -15 35 0 24 5 35 15 35 10 0 15
-11 15 -35z"/>
<path d="M8560 5644 c-6 -14 -10 -32 -10 -39 0 -8 -7 -18 -16 -23 -14 -8 -14
-10 0 -21 9 -8 16 -22 16 -32 0 -11 4 -19 10 -19 5 0 7 -7 4 -15 -5 -12 3 -15
41 -15 41 0 46 2 40 18 -5 13 -4 14 6 5 10 -10 17 -9 35 8 18 17 21 28 16 67
-5 46 -20 72 -41 72 -6 0 -11 5 -11 10 0 6 -18 10 -40 10 -34 0 -42 -4 -50
-26z"/>
<path d="M2190 5611 c0 -5 -11 -12 -25 -15 -14 -4 -25 -11 -25 -16 0 -5 -7 -7
-15 -4 -12 5 -15 -3 -15 -41 0 -37 3 -46 14 -42 10 4 13 1 9 -9 -8 -23 23 -40
70 -38 51 2 77 12 77 30 0 8 5 14 10 14 6 0 10 20 10 45 0 30 -4 45 -13 45 -7
0 -30 9 -52 20 -45 23 -45 23 -45 11z"/>
<path d="M1550 5600 c0 -5 -9 -10 -20 -10 -11 0 -23 -6 -26 -14 -3 -8 -12 -12
-20 -9 -11 4 -14 -5 -14 -41 0 -25 5 -46 10 -46 6 0 10 -6 10 -14 0 -18 26
-28 77 -30 45 -2 61 7 81 42 15 26 16 92 2 92 -6 0 -30 9 -52 20 -48 23 -48
23 -48 10z"/>
<path d="M2850 5600 c0 -5 -9 -10 -20 -10 -11 0 -23 -6 -26 -14 -3 -8 -12 -12
-20 -9 -11 4 -14 -5 -14 -41 0 -26 5 -46 11 -46 5 0 8 -4 4 -9 -16 -26 108
-49 137 -26 37 29 55 125 23 125 -8 0 -30 9 -50 20 -41 23 -45 24 -45 10z"/>
<path d="M9448 5602 c-69 -2 -88 -6 -88 -17 0 -12 15 -15 68 -15 37 -1 104 -2
149 -3 58 -1 84 2 87 10 7 18 -3 21 -62 21 -28 1 -55 2 -60 4 -4 2 -46 2 -94
0z"/>
<path d="M3657 5434 c-4 -4 -7 -61 -7 -126 l0 -119 88 3 87 3 0 120 0 120 -80
3 c-45 2 -84 0 -88 -4z m143 -119 l0 -105 -70 0 -70 0 0 105 0 105 70 0 70 0
0 -105z"/>
<path d="M3608 5375 c-4 -3 -1461 -15 -1875 -15 -306 0 -353 -2 -353 -15 0
-13 53 -14 428 -8 235 3 440 3 455 -1 l27 -6 -2 -228 -2 -227 -6 220 c-4 146
-6 55 -6 -270 0 -319 2 -413 6 -270 l5 220 5 -220 5 -220 3 233 c1 149 -2 232
-8 232 -5 0 -10 5 -10 11 0 5 5 7 11 3 6 -3 10 1 9 12 -1 11 -2 131 -1 268 l1
249 89 -6 c61 -4 92 -2 101 6 7 7 10 8 7 2 -8 -16 1085 -8 1095 8 6 9 8 9 8
-2 0 -7 6 -11 15 -7 13 5 15 -8 13 -87 l-2 -92 -6 85 -6 85 -2 -100 -2 -100
-75 -65 c-41 -36 -75 -68 -75 -71 0 -14 70 -39 109 -39 l41 0 0 -50 0 -50 -90
0 c-106 0 -102 6 -98 -140 l3 -95 93 -3 c50 -1 92 -6 92 -10 0 -4 -42 -7 -92
-7 l-93 0 0 -115 0 -115 93 -3 c62 -2 93 -7 94 -15 1 -7 5 87 8 208 l6 220 2
-228 c1 -150 -1 -226 -8 -222 -6 4 -10 -5 -10 -19 0 -28 1 -29 22 -21 10 4 13
86 12 438 0 621 -1 644 -19 644 -8 0 -16 -1 -17 -2z m2 -335 l0 -70 -40 0
c-21 0 -51 5 -65 12 l-27 12 64 58 c35 31 64 57 66 58 1 0 2 -31 2 -70z m17
-132 c-3 -8 -6 -5 -6 6 -1 11 2 17 5 13 3 -3 4 -12 1 -19z m-37 -173 l0 -106
-67 3 -68 3 -2 103 -3 102 70 0 70 0 0 -105z m0 -250 l0 -105 -70 0 -70 0 0
105 0 105 70 0 70 0 0 -105z"/>
<path d="M1332 5352 c4 -23 37 -29 34 -6 -2 10 -10 18 -20 20 -11 2 -16 -3
-14 -14z"/>
<path d="M7540 5350 c0 -5 -9 -10 -19 -10 -11 0 -22 -4 -26 -10 -3 -5 -12 -7
-20 -3 -12 4 -15 -5 -15 -42 0 -40 3 -46 16 -41 14 5 15 4 4 -9 -21 -25 22
-52 79 -49 57 3 91 39 91 95 0 33 -3 37 -40 49 -22 7 -40 17 -40 22 0 4 -7 8
-15 8 -8 0 -15 -4 -15 -10z"/>
<path d="M8000 5340 c0 -5 -11 -10 -25 -10 -17 0 -25 -6 -26 -17 0 -11 -3 -13
-6 -5 -11 27 -23 9 -23 -34 0 -40 2 -45 18 -39 13 5 14 4 5 -6 -10 -10 -9 -17
8 -35 17 -18 28 -21 67 -16 52 5 75 18 68 39 -3 7 1 13 10 13 12 0 14 10 12
43 -2 23 -8 42 -15 42 -6 0 -15 3 -19 8 -4 4 -16 7 -26 7 -10 0 -18 5 -18 10
0 6 -7 10 -15 10 -8 0 -15 -4 -15 -10z"/>
<path d="M10650 5340 c0 -5 -6 -10 -13 -10 -7 0 -25 -6 -40 -12 -23 -11 -27
-19 -27 -57 0 -34 3 -42 14 -38 10 4 13 1 9 -9 -8 -23 23 -40 70 -38 57 2 80
13 74 35 -3 12 0 16 9 12 11 -4 14 6 14 39 0 43 -1 45 -40 58 -22 7 -40 17
-40 22 0 4 -7 8 -15 8 -8 0 -15 -4 -15 -10z"/>
<path d="M10088 5321 c-47 -16 -48 -17 -48 -58 0 -24 5 -43 10 -43 6 0 10 -6
10 -13 0 -21 43 -41 85 -38 52 3 85 40 85 95 0 30 -3 37 -15 32 -9 -3 -15 0
-15 9 0 8 -9 15 -19 15 -11 0 -23 5 -26 10 -7 12 -6 12 -67 -9z"/>
<path d="M6135 5241 c-3 -2 -5 -10 -5 -17 0 -10 32 -13 144 -13 79 0 150 -2
158 -3 7 -2 13 5 13 16 0 18 -8 20 -78 20 -44 1 -81 -2 -83 -6 -3 -4 -10 -5
-17 -2 -18 6 -127 11 -132 5z"/>
<path d="M4910 5050 l0 -161 83 3 82 3 3 158 3 157 -86 0 -85 0 0 -160z m150
105 c0 -44 0 -45 -32 -44 -25 1 -27 3 -10 6 26 5 27 38 2 38 -8 0 -18 4 -21 9
-12 16 -29 -5 -29 -35 0 -19 -5 -29 -15 -29 -10 0 -15 -11 -15 -35 0 -24 5
-35 15 -35 10 0 15 -10 15 -30 0 -20 5 -30 15 -30 9 0 15 9 15 23 0 18 6 22
30 22 30 0 30 -1 30 -52 l0 -53 -70 0 -70 0 0 145 0 145 70 0 70 0 0 -45z
m-12 -93 c2 -24 -1 -32 -12 -32 -12 0 -16 10 -16 36 0 45 24 42 28 -4z"/>
<path d="M4567 5193 c-4 -3 -7 -42 -7 -85 l0 -78 165 0 165 0 0 85 0 85 -158
0 c-87 0 -162 -3 -165 -7z m303 -83 l0 -70 -145 0 -145 0 0 70 0 70 145 0 145
0 0 -70z"/>
<path d="M4700 5160 c0 -5 -10 -10 -22 -10 -30 0 -52 -15 -44 -29 4 -6 16 -11
27 -11 14 0 19 -7 19 -30 0 -29 2 -30 45 -30 44 0 45 1 46 33 1 23 3 26 6 10
3 -15 12 -23 25 -23 15 0 19 5 15 20 -3 10 0 21 6 23 21 7 -4 27 -34 27 -19 0
-29 5 -29 15 0 10 -10 15 -30 15 -16 0 -30 -4 -30 -10z m48 -70 c6 0 12 -4 12
-10 0 -5 -16 -10 -35 -10 -26 0 -35 4 -35 16 0 12 6 15 23 10 12 -3 28 -6 35
-6z"/>
<path d="M10270 4935 l0 -235 135 0 135 0 0 25 c0 23 3 25 42 22 34 -2 43 2
46 16 3 15 -2 18 -30 17 -18 -1 -39 -2 -45 -1 -10 1 -13 47 -13 196 l0 195
-135 0 -135 0 0 -235z"/>
<path d="M2650 5140 c-34 -4 -47 -10 -55 -27 -5 -13 -13 -23 -17 -23 -5 0 -8
-21 -8 -46 0 -37 3 -45 15 -40 8 3 15 1 15 -4 0 -6 11 -10 25 -10 14 0 25 -4
25 -10 0 -5 7 -10 15 -10 8 0 15 5 15 10 0 6 9 10 19 10 11 0 22 4 26 10 3 5
12 7 20 3 12 -4 15 5 15 41 0 25 -4 46 -9 46 -5 0 -11 9 -14 19 -7 27 -35 38
-87 31z"/>
<path d="M3060 5139 c0 -8 -11 -10 -33 -6 -33 5 -67 -11 -67 -32 0 -6 -4 -11
-10 -11 -5 0 -10 -20 -10 -45 0 -36 3 -45 18 -45 9 0 32 -9 50 -20 30 -18 35
-19 48 -5 9 8 22 15 30 15 8 0 14 4 14 10 0 5 7 7 15 4 12 -5 15 3 15 40 0 25
-4 46 -10 46 -5 0 -10 -5 -10 -12 0 -6 -3 -8 -6 -5 -4 4 -2 13 4 20 9 10 7 17
-6 28 -30 26 -42 31 -42 18z"/>
<path d="M5138 5134 c-4 -3 -4 -12 -1 -20 3 -8 0 -14 -6 -14 -6 0 -11 -11 -11
-24 0 -13 -6 -27 -12 -30 -10 -5 -10 -7 0 -12 6 -3 12 -17 12 -30 0 -15 6 -24
16 -24 14 0 14 -3 4 -15 -11 -13 -6 -15 39 -15 70 0 99 29 95 95 -3 50 -19 79
-40 71 -8 -3 -13 0 -11 7 2 13 -74 23 -85 11z"/>
<path d="M7850 5119 c0 -18 8 -19 105 -19 58 0 108 0 113 0 4 0 7 8 7 17 0 15
-14 17 -112 19 -106 2 -113 1 -113 -17z"/>
<path d="M8922 5122 c-2 -7 -2 -15 0 -17 3 -3 52 -5 109 -4 129 0 145 0 161
-3 7 -2 13 6 13 17 0 19 -7 20 -139 20 -104 0 -140 -3 -144 -13z"/>
<path d="M5933 5007 c-12 -6 -116 -74 -231 -149 -115 -76 -217 -140 -226 -144
-16 -6 -23 -24 -8 -24 4 0 72 43 152 95 80 52 148 95 152 95 5 0 8 -43 8 -95
0 -57 4 -95 10 -95 6 0 10 43 10 108 l1 107 77 48 77 47 282 0 c177 0 284 4
288 10 10 16 -564 13 -592 -3z"/>
<path d="M4190 4977 c0 -17 12 -18 158 -15 132 3 157 5 157 18 0 13 -24 15
-157 15 -145 0 -158 -1 -158 -18z"/>
<path d="M7454 4987 c-2 -7 -3 -60 -2 -118 l3 -104 45 -6 45 -5 -45 -5 -45 -4
0 -115 0 -115 250 -3 c138 -1 350 1 473 4 l222 7 0 228 0 229 -115 0 -115 0 0
-117 0 -118 -296 2 c-163 2 -299 5 -302 8 -3 3 22 5 56 5 l62 0 0 120 0 120
-115 0 c-86 0 -117 -3 -121 -13z m216 -107 l0 -100 -45 0 c-33 0 -45 4 -45 15
0 8 5 15 10 15 6 0 10 16 10 35 0 19 -4 35 -9 35 -5 0 -11 14 -14 30 -8 37
-37 41 -37 5 0 -21 -5 -25 -30 -25 -29 0 -30 -2 -30 -45 0 -44 1 -45 33 -46
30 -1 31 -1 7 -9 -50 -16 -50 -16 -50 90 l0 100 100 0 100 0 0 -100z m580 70
c0 -16 -7 -20 -30 -20 -29 0 -30 -2 -30 -45 0 -24 6 -48 13 -52 6 -4 12 -14
12 -22 0 -8 13 -19 29 -24 32 -11 46 1 46 41 0 12 5 22 10 22 12 0 14 57 2 62
-5 2 -12 16 -16 31 l-7 28 53 -3 53 -3 3 -102 3 -103 -106 0 -105 0 0 105 0
105 35 0 c28 0 35 -4 35 -20z m-12 -68 c2 -24 -1 -32 -12 -32 -12 0 -16 10
-16 36 0 45 24 42 28 -4z m-710 -34 c-4 -46 -28 -49 -28 -4 0 26 4 36 16 36
11 0 14 -8 12 -32z m777 -140 c-4 -18 -11 -34 -16 -36 -12 -5 -12 -72 0 -72 5
0 12 -13 16 -30 8 -37 35 -40 35 -5 0 20 5 25 25 25 21 0 25 -5 25 -30 l0 -30
-105 0 -105 0 0 105 0 105 66 0 66 0 -7 -32z m85 2 c0 -26 -3 -30 -27 -29 -24
2 -25 2 -5 6 12 2 22 11 22 19 0 8 -10 19 -22 24 -22 8 -22 9 5 9 24 1 27 -3
27 -29z m-720 -80 l0 -100 -100 0 -100 0 0 100 0 100 100 0 100 0 0 -100z
m240 0 l0 -100 -100 0 -100 0 0 100 0 100 100 0 100 0 0 -100z m240 0 l0 -100
-100 0 -100 0 0 100 0 100 100 0 100 0 0 -100z m230 5 c0 -24 -5 -35 -15 -35
-15 0 -22 50 -8 63 15 15 23 5 23 -28z"/>
<path d="M4706 4983 c-4 -5 -24 -13 -44 -18 -34 -10 -37 -14 -40 -53 -2 -25 1
-42 7 -42 6 0 11 -6 11 -13 0 -7 10 -19 23 -26 46 -30 154 1 126 36 -9 11 -8
12 5 7 13 -5 16 1 16 41 0 38 -3 46 -15 41 -8 -3 -15 -1 -15 4 0 6 -9 10 -19
10 -11 0 -23 5 -26 10 -7 12 -19 13 -29 3z"/>
<path d="M10693 4976 c4 -10 1 -13 -9 -9 -19 7 -56 -38 -43 -53 5 -6 8 -27 7
-45 -2 -27 2 -36 20 -44 12 -5 22 -13 22 -17 0 -5 21 -8 46 -8 37 0 45 3 40
15 -3 8 -1 15 4 15 6 0 10 6 10 14 0 8 7 21 15 30 14 13 13 18 -5 48 -11 18
-20 41 -20 51 0 14 -9 17 -46 17 -36 0 -45 -3 -41 -14z"/>
<path d="M8029 4963 c-1 -5 -1 -11 0 -15 0 -4 -6 -5 -15 -1 -22 8 -40 -22 -39
-70 1 -52 17 -82 38 -74 11 4 14 2 10 -9 -4 -11 5 -14 42 -14 38 0 46 3 41 15
-3 8 -1 15 4 15 5 0 12 10 16 23 4 12 11 25 15 28 5 3 0 24 -11 47 -11 22 -20
46 -20 52 0 11 -79 14 -81 3z"/>
<path d="M2330 4765 l0 -165 473 2 472 3 0 160 0 160 -472 3 -473 2 0 -165z
m460 0 l0 -145 -220 0 -220 0 0 145 0 145 220 0 220 0 0 -145z m470 0 l0 -145
-225 0 -225 0 0 145 0 145 225 0 225 0 0 -145z"/>
<path d="M2634 4756 c-4 -10 -18 -16 -35 -16 -43 0 -39 -30 4 -31 17 0 26 -3
20 -6 -7 -2 -13 -15 -13 -28 0 -19 7 -24 42 -29 30 -5 46 -3 53 6 5 8 18 12
28 10 12 -2 17 3 17 16 0 11 6 23 13 26 16 6 -20 36 -44 36 -10 0 -19 4 -21 9
-1 5 -15 13 -30 16 -21 5 -29 3 -34 -9z m56 -81 c0 -10 -10 -15 -30 -15 -20 0
-30 5 -30 15 0 10 10 15 30 15 20 0 30 -5 30 -15z"/>
<path d="M7300 4910 c0 -5 5 -10 12 -10 6 0 8 -3 5 -6 -4 -4 -13 -2 -20 4 -22
19 -42 -16 -42 -73 0 -48 12 -75 34 -75 6 0 11 -4 11 -10 0 -5 21 -10 46 -10
37 0 45 3 40 15 -3 8 -1 15 4 15 6 0 10 8 10 19 0 10 6 24 14 30 12 10 12 17
-2 44 -9 18 -20 33 -24 35 -4 2 -4 10 -1 18 4 11 -5 14 -41 14 -25 0 -46 -4
-46 -10z"/>
<path d="M6010 4820 l0 -90 165 0 165 0 0 90 0 90 -165 0 -165 0 0 -90z m243
73 c-40 -2 -107 -2 -150 0 -43 1 -10 3 72 3 83 0 118 -2 78 -3z m35 -25 c17
-17 15 -76 -2 -94 -11 -10 -41 -14 -111 -14 -108 0 -125 8 -125 60 0 53 14 59
126 60 65 0 104 -4 112 -12z"/>
<path d="M4910 4715 l0 -165 -75 0 c-41 0 -226 0 -410 0 -184 0 -369 0 -410 0
l-75 0 0 160 0 160 -85 0 -85 0 0 -245 1 -245 655 0 654 0 -2 248 -3 247 -82
3 -83 3 0 -166z m-990 84 c0 -37 -4 -58 -10 -54 -5 3 -10 15 -10 26 0 10 -6
19 -12 19 -7 0 -23 3 -35 6 -19 5 -23 1 -28 -30 -4 -20 -11 -36 -16 -36 -5 0
-9 -16 -9 -35 0 -19 4 -35 9 -35 5 0 12 -13 16 -30 8 -37 35 -40 35 -5 0 21 5
25 30 25 29 0 30 -2 30 -45 l0 -45 -70 0 -70 0 0 150 0 150 70 0 70 0 0 -61z
m1140 -84 l0 -145 -65 0 -65 0 0 145 0 145 65 0 65 0 0 -145z m-1160 -20 c0
-19 -4 -35 -10 -35 -5 0 -10 16 -10 35 0 19 5 35 10 35 6 0 10 -16 10 -35z
m180 -235 l0 -70 -145 0 -145 0 0 70 0 70 145 0 145 0 0 -70z m330 0 l0 -70
-150 0 -150 0 0 70 0 70 150 0 150 0 0 -70z m318 4 l-3 -67 -62 -2 c-46 -2
-63 1 -63 11 0 7 14 14 32 16 39 4 51 28 14 28 -22 0 -26 4 -26 30 0 29 -1 30
-50 30 -27 0 -50 -4 -50 -10 0 -5 -9 -10 -20 -10 -11 0 -20 -6 -20 -12 0 -7
-3 -23 -6 -35 -6 -21 -3 -23 30 -23 24 0 36 -5 36 -14 0 -12 -43 -16 -92 -7
-5 0 -8 30 -8 66 l0 65 145 0 146 0 -3 -66z m332 1 l0 -65 -145 0 -145 0 0 65
0 65 145 0 145 0 0 -65z m-452 18 c2 -9 -8 -13 -32 -13 -26 0 -36 4 -36 16 0
19 61 16 68 -3z"/>
<path d="M4015 4800 c-3 -5 -3 -14 0 -20 3 -5 1 -10 -4 -10 -6 0 -11 -6 -11
-14 0 -8 -7 -22 -16 -30 -14 -15 -14 -17 0 -32 9 -8 16 -22 16 -30 0 -8 4 -14
10 -14 5 0 7 -7 4 -15 -5 -12 3 -15 41 -15 40 0 46 3 41 16 -5 14 -4 15 9 4
12 -10 18 -8 34 11 14 17 16 28 9 37 -6 6 -8 24 -5 40 6 29 -6 50 -41 70 -26
14 -78 16 -87 2z"/>
<path d="M4498 4741 c-11 -7 -17 -19 -14 -27 3 -8 0 -13 -7 -11 -7 1 -13 -14
-15 -40 -2 -27 1 -43 8 -43 6 0 30 -9 53 -20 25 -12 43 -16 45 -10 2 5 12 10
23 10 11 0 22 6 25 14 3 8 12 12 20 9 11 -4 14 5 14 41 0 25 -4 46 -10 46 -5
0 -10 6 -10 14 0 29 -97 42 -132 17z"/>
<path d="M9253 4728 c-1 -18 -5 -57 -9 -86 -3 -29 -2 -60 2 -70 4 -9 8 -29 9
-44 1 -15 4 -30 8 -34 3 -4 6 55 6 130 -1 75 -4 136 -7 136 -4 0 -8 -15 -9
-32z"/>
<path d="M8457 4723 c-2 -5 -10 -25 -16 -45 -7 -21 -16 -38 -21 -38 -10 0 20
-63 32 -68 4 -2 4 -10 1 -18 -4 -11 5 -14 42 -14 40 0 46 3 41 16 -5 13 -4 14
7 6 11 -9 19 -6 36 12 14 14 20 30 16 37 -5 6 -8 25 -7 42 1 30 -17 57 -37 57
-6 0 -11 5 -11 10 0 12 -77 14 -83 3z"/>
<path d="M5850 4670 l-385 -6 408 -1 c258 -1 405 1 402 7 -4 6 -14 9 -23 8 -9
-2 -190 -5 -402 -8z"/>
<path d="M6290 4668 c0 -4 186 -7 413 -6 226 1 390 3 362 5 -110 6 -775 8
-775 1z"/>
<path d="M10272 4448 l3 -233 135 0 135 0 3 233 2 232 -140 0 -140 0 2 -232z"/>
<path d="M2650 4560 c0 -5 -8 -10 -18 -10 -10 0 -22 -3 -26 -7 -4 -5 -13 -8
-19 -8 -7 0 -13 -19 -15 -42 -2 -26 1 -43 7 -43 6 0 11 -6 11 -13 0 -21 43
-41 85 -38 47 3 68 18 62 42 -3 12 0 16 9 12 11 -4 14 6 14 42 0 38 -3 46 -15
41 -8 -3 -15 -1 -15 4 0 6 -11 10 -25 10 -14 0 -25 5 -25 10 0 6 -7 10 -15 10
-8 0 -15 -4 -15 -10z"/>
<path d="M10694 4484 c5 -14 4 -15 -9 -4 -12 10 -18 8 -34 -11 -31 -38 -10
-148 25 -135 8 3 13 0 11 -7 -1 -8 13 -12 43 -12 28 0 45 5 45 12 0 6 3 15 8
19 4 4 7 15 7 25 0 9 6 19 13 22 10 3 10 9 0 26 -7 11 -13 28 -13 36 0 8 -4
15 -10 15 -5 0 -7 7 -4 15 5 12 -3 15 -41 15 -40 0 -46 -3 -41 -16z"/>
<path d="M7140 4459 c0 -12 7 -19 18 -19 10 0 19 6 19 14 0 8 -9 17 -19 19
-13 4 -18 0 -18 -14z"/>
<path d="M7550 4460 l365 -5 -360 -5 -360 -5 372 -2 c281 -2 373 1 377 10 5 9
7 9 12 0 4 -9 100 -12 397 -10 l392 1 -365 6 -365 5 365 5 c226 3 69 5 -415 5
-510 0 -654 -1 -415 -5z"/>
<path d="M8960 4344 c0 -47 -4 -73 -10 -69 -6 4 -10 -15 -10 -50 0 -33 4 -54
10 -50 5 3 10 -24 12 -67 2 -40 5 14 6 120 1 105 -1 192 -3 192 -3 0 -5 -34
-5 -76z"/>
<path d="M5420 4326 c0 -14 -29 -16 -240 -16 -153 0 -240 4 -240 10 0 6 -27
10 -60 10 -33 0 -60 -4 -60 -10 0 -6 -94 -11 -247 -13 l-248 -2 262 -3 c201
-1 262 1 266 11 4 9 6 9 6 0 1 -9 74 -12 291 -13 248 0 290 2 290 14 0 8 -4
18 -10 21 -5 3 -10 -1 -10 -9z"/>
<path d="M2270 4313 c0 -14 27 -29 36 -21 2 3 2 12 -1 20 -7 18 -35 19 -35 1z"/>
<path d="M3930 4320 c0 -5 -57 -11 -137 -13 l-138 -3 142 -2 c105 -1 143 1
146 11 4 8 6 9 6 0 1 -8 51 -11 189 -10 163 1 170 2 50 4 -81 2 -138 8 -138
13 0 6 -27 10 -60 10 -33 0 -60 -4 -60 -10z"/>
<path d="M2330 4300 c0 -7 102 -10 300 -10 182 0 300 4 300 9 0 6 -119 10
-300 11 -199 0 -300 -3 -300 -10z"/>
<path d="M2945 4301 c-3 -6 117 -10 320 -11 215 0 325 3 325 10 0 13 -636 14
-645 1z"/>
<path d="M9222 4230 c3 -12 28 -15 146 -17 130 -1 142 0 142 16 0 16 -13 18
-145 17 -124 -1 -145 -3 -143 -16z"/>
<path d="M8955 4017 c-8 -19 -2 -31 13 -26 5 2 6 13 2 24 -7 19 -8 19 -15 2z"/>
<path d="M9310 4010 c0 -6 -66 -11 -162 -13 l-163 -3 168 -2 c128 -1 167 1
167 11 0 9 3 8 9 -2 7 -11 9 -11 14 0 4 11 6 11 6 -1 1 -13 2 -13 11 0 6 9 10
10 10 3 0 -8 50 -11 188 -10 l187 1 -155 3 c-85 2 -159 8 -164 13 -13 13 -116
13 -116 0z"/>
<path d="M9772 3804 c4 -23 35 -31 35 -10 0 13 -3 13 -16 3 -10 -8 -13 -9 -8
0 4 6 2 15 -4 18 -7 5 -10 0 -7 -11z"/>
<path d="M9985 3075 c0 -379 1 -543 3 -362 1 206 6 327 12 327 6 0 10 16 10
35 0 19 -4 35 -10 35 -6 0 -11 121 -12 328 -2 180 -3 17 -3 -363z"/>
<path d="M11199 3438 c-1 -527 2 -1032 7 -1037 2 -2 4 302 4 677 0 375 -2 682
-5 682 -3 0 -5 -145 -6 -322z"/>
<path d="M10194 3443 c-9 -7 -14 -19 -11 -27 4 -10 1 -13 -9 -9 -11 4 -14 -5
-14 -39 0 -43 1 -45 40 -58 22 -7 40 -17 40 -22 0 -4 7 -8 15 -8 8 0 15 4 15
8 0 5 18 15 40 22 39 13 40 15 40 58 0 34 -3 43 -14 39 -11 -4 -13 -1 -9 10 4
9 -1 20 -13 26 -26 15 -99 15 -120 0z"/>
<path d="M10044 3247 c-2 -7 -3 -80 -2 -162 l3 -150 473 -3 472 -2 0 165 0
165 -470 0 c-376 0 -472 -3 -476 -13z m466 -152 l0 -145 -225 0 -225 0 0 145
0 145 225 0 225 0 0 -145z m470 0 l0 -145 -225 0 -225 0 0 145 0 145 225 0
225 0 0 -145z"/>
<path d="M10220 3160 c0 -5 -9 -10 -20 -10 -13 0 -20 -7 -20 -19 0 -11 -5 -21
-12 -23 -21 -7 3 -28 33 -28 19 0 29 -5 29 -15 0 -10 11 -15 35 -15 25 0 35 4
35 16 0 8 4 13 9 10 14 -9 63 12 56 24 -3 5 -15 10 -26 10 -14 0 -19 7 -19 30
0 29 -1 30 -50 30 -27 0 -50 -4 -50 -10z m78 -17 c2 -9 -7 -13 -27 -13 -21 0
-31 5 -31 16 0 19 51 16 58 -3z"/>
<path d="M10690 3126 c0 -9 -12 -16 -32 -18 -39 -4 -51 -28 -14 -28 22 0 26
-4 26 -30 0 -29 1 -30 50 -30 28 0 50 5 50 10 0 6 9 10 20 10 11 0 20 6 20 13
0 6 3 22 6 35 6 20 3 22 -30 22 -25 0 -36 4 -36 15 0 10 -10 15 -30 15 -19 0
-30 -5 -30 -14z m60 -81 c0 -10 -10 -15 -30 -15 -20 0 -30 5 -30 15 0 10 10
15 30 15 20 0 30 -5 30 -15z"/>
<path d="M10710 2910 c-19 -11 -52 -23 -65 -24 -5 -1 -11 -21 -13 -45 -3 -38
-1 -43 14 -37 14 5 15 4 4 -9 -10 -13 -10 -19 4 -34 28 -31 154 -17 142 16 -3
8 -2 12 3 9 11 -7 21 17 21 52 0 22 -8 31 -40 45 -22 9 -40 21 -40 27 0 12
-10 12 -30 0z"/>
<path d="M9982 2362 c4 -21 35 -28 35 -8 0 8 -9 17 -19 19 -14 4 -18 1 -16
-11z"/>
<path d="M11179 2364 c-12 -14 -11 -16 5 -13 11 2 21 10 24 17 5 17 -13 15
-29 -4z"/>
<path d="M10030 2354 c0 -13 7 -15 32 -10 17 3 271 6 565 6 339 0 533 4 533
10 0 6 -205 10 -565 10 -511 0 -565 -2 -565 -16z"/>
<path d="M11654 448 c-16 -18 -17 -21 -2 -15 14 5 18 -2 21 -41 3 -42 4 -40 5
16 1 34 0 62 -1 62 -2 0 -12 -10 -23 -22z"/>
<path d="M11731 426 c-6 -24 -14 -52 -17 -62 -5 -13 -4 -16 3 -9 14 13 43 115
33 115 -4 0 -13 -20 -19 -44z"/>
<path d="M11794 448 c-16 -18 -17 -21 -2 -15 14 5 18 -2 21 -41 3 -42 4 -40 5
16 1 34 0 62 -1 62 -2 0 -12 -10 -23 -22z"/>
</g>
</svg>
